<svg width="142" height="39" viewBox="0 0 142 39" fill="none" xmlns="http://www.w3.org/2000/svg">
<g clip-path="url(#clip0_7_28)">
<path d="M0 9.65601H20.5483V11.2717H4.15011V23.0414H19.3032V24.6571H4.15011V37.05H20.9633V38.6657H0V9.65601Z" fill="#F57A32"/>
<path d="M42.4636 33.157L53.1737 9.86493V9.65949H57.3238V38.6727H53.1737V13.8833L42.5473 37.4261H40.0154L28.8067 13.9251V38.6692H27.1466V9.65601H31.4641L42.4636 33.157Z" fill="#F57A32"/>
<path d="M64.5011 6.9225L69.4429 0H73.8441L66.1646 6.9225H64.5046H64.5011ZM65.4148 9.65598H69.5649V38.6692H65.4148V9.65598Z" fill="#F57A32"/>
<path d="M77.6594 9.65601H81.8095V37.0535H97.001V38.6692H77.6559V9.65601H77.6594Z" fill="#F57A32"/>
<path d="M101.943 9.65601H106.093V38.6692H101.943V9.65601Z" fill="#F57A32"/>
<path d="M127.262 9.36694C135.771 9.36694 141.996 15.6661 141.996 24.1626C141.996 32.659 135.771 39 127.262 39C118.752 39 112.527 32.659 112.527 24.1626C112.527 15.6661 118.752 9.36694 127.262 9.36694ZM127.262 37.5096C133.281 37.5096 137.721 31.9974 137.721 24.1626C137.721 16.3277 133.278 10.8573 127.262 10.8573C121.246 10.8573 116.841 16.3277 116.841 24.1626C116.841 31.9974 121.284 37.5096 127.262 37.5096Z" fill="#F57A32"/>
</g>
<defs>
<clipPath id="clip0_7_28">
<rect width="142" height="39" fill="white"/>
</clipPath>
</defs>
</svg>
