<svg width="129" height="121" viewBox="0 0 129 121" fill="none" xmlns="http://www.w3.org/2000/svg">
<ellipse cx="64.5" cy="60.5" rx="64.5" ry="60.5" fill="white"/>
<path d="M11 53.1802H26.3392V54.3816H14.098V63.1334H25.4098V64.3348H14.098V73.5501H26.649V74.7515H11V53.1802Z" fill="#F57A32"/>
<path d="M42.699 70.6553L50.6941 53.3355V53.1828H53.7921V74.7567H50.6941V56.3236L42.7615 73.8297H40.8714L32.5041 56.3546V74.7541H31.2649V53.1802H34.4879L42.699 70.6553Z" fill="#F57A32"/>
<path d="M59.1499 51.1475L62.8389 46H66.1244L60.3917 51.1475H59.1525H59.1499ZM59.832 53.1801H62.93V74.754H59.832V53.1801Z" fill="#F57A32"/>
<path d="M68.9726 53.1802H72.0706V73.5527H83.411V74.7541H68.97V53.1802H68.9726Z" fill="#F57A32"/>
<path d="M87.1 53.1802H90.198V74.7541H87.1V53.1802Z" fill="#F57A32"/>
<path d="M106.001 52.9651C112.353 52.9651 117 57.6491 117 63.967C117 70.2848 112.353 74.9999 106.001 74.9999C99.6483 74.9999 95.0012 70.2848 95.0012 63.967C95.0012 57.6491 99.6483 52.9651 106.001 52.9651ZM106.001 73.8917C110.494 73.8917 113.808 69.7929 113.808 63.967C113.808 58.1411 110.491 54.0733 106.001 54.0733C101.51 54.0733 98.2216 58.1411 98.2216 63.967C98.2216 69.7929 101.538 73.8917 106.001 73.8917Z" fill="#F57A32"/>
</svg>
