<svg width="127" height="18" viewBox="0 0 127 18" fill="none" xmlns="http://www.w3.org/2000/svg">
<path d="M8.41749 1.5625C8.79249 0.8125 9.85499 0.84375 10.1987 1.5625L12.2612 5.71875L16.8237 6.375C17.6362 6.5 17.9487 7.5 17.355 8.09375L14.0737 11.3125L14.855 15.8438C14.98 16.6562 14.105 17.2812 13.3862 16.9062L9.32374 14.75L5.22999 16.9062C4.51124 17.2812 3.63624 16.6562 3.76124 15.8438L4.54249 11.3125L1.26124 8.09375C0.667492 7.5 0.979992 6.5 1.79249 6.375L6.38624 5.71875L8.41749 1.5625Z" fill="#F57A32"/>
<path d="M35.3527 1.5625C35.7277 0.8125 36.7902 0.84375 37.134 1.5625L39.1965 5.71875L43.759 6.375C44.5715 6.5 44.884 7.5 44.2902 8.09375L41.009 11.3125L41.7902 15.8438C41.9152 16.6562 41.0402 17.2812 40.3215 16.9062L36.259 14.75L32.1652 16.9062C31.4465 17.2812 30.5715 16.6562 30.6965 15.8438L31.4777 11.3125L28.1965 8.09375C27.6027 7.5 27.9152 6.5 28.7277 6.375L33.3215 5.71875L35.3527 1.5625Z" fill="#F57A32"/>
<path d="M62.288 1.5625C62.663 0.8125 63.7255 0.84375 64.0693 1.5625L66.1318 5.71875L70.6943 6.375C71.5068 6.5 71.8193 7.5 71.2255 8.09375L67.9443 11.3125L68.7255 15.8438C68.8505 16.6562 67.9755 17.2812 67.2568 16.9062L63.1943 14.75L59.1005 16.9062C58.3818 17.2812 57.5068 16.6562 57.6318 15.8438L58.413 11.3125L55.1318 8.09375C54.538 7.5 54.8505 6.5 55.663 6.375L60.2568 5.71875L62.288 1.5625Z" fill="#F57A32"/>
<path d="M89.2233 1.5625C89.5983 0.8125 90.6608 0.84375 91.0045 1.5625L93.067 5.71875L97.6295 6.375C98.442 6.5 98.7545 7.5 98.1608 8.09375L94.8795 11.3125L95.6608 15.8438C95.7858 16.6562 94.9108 17.2812 94.192 16.9062L90.1295 14.75L86.0358 16.9062C85.317 17.2812 84.442 16.6562 84.567 15.8438L85.3483 11.3125L82.067 8.09375C81.4733 7.5 81.7858 6.5 82.5983 6.375L87.192 5.71875L89.2233 1.5625Z" fill="#F57A32"/>
<path d="M116.159 1.5625C116.534 0.8125 117.596 0.84375 117.94 1.5625L120.002 5.71875L124.565 6.375C125.377 6.5 125.69 7.5 125.096 8.09375L121.815 11.3125L122.596 15.8438C122.721 16.6562 121.846 17.2812 121.127 16.9062L117.065 14.75L112.971 16.9062C112.252 17.2812 111.377 16.6562 111.502 15.8438L112.284 11.3125L109.002 8.09375C108.409 7.5 108.721 6.5 109.534 6.375L114.127 5.71875L116.159 1.5625Z" fill="#F57A32"/>
</svg>
