<svg width="63" height="63" viewBox="0 0 63 63" fill="none" xmlns="http://www.w3.org/2000/svg">
<g filter="url(#filter0_d_18_176)">
<circle cx="31.5" cy="27.5" r="27.5" fill="#25D366"/>
</g>
<path d="M32.1551 11.5447C29.4833 11.5447 26.9989 12.2244 24.702 13.5837C22.4051 14.8962 20.577 16.7009 19.2176 18.9978C17.9051 21.2478 17.2489 23.7087 17.2489 26.3806C17.2489 29.0525 17.9286 31.5369 19.288 33.8337L17.1786 41.4978L25.0536 39.4587C27.2567 40.6775 29.6239 41.2869 32.1551 41.2869C34.827 41.2869 37.288 40.6306 39.538 39.3181C41.8348 37.9587 43.6395 36.1541 44.952 33.9041C46.3114 31.6072 46.9911 29.0994 46.9911 26.3806C46.9911 24.4119 46.6161 22.5369 45.8661 20.7556C45.1161 18.9275 44.038 17.3103 42.6317 15.9041C41.2723 14.4978 39.6786 13.4197 37.8505 12.6697C36.0223 11.9197 34.1239 11.5447 32.1551 11.5447ZM32.1551 14.0056C33.7958 14.0056 35.3661 14.3337 36.8661 14.99C38.3661 15.5994 39.702 16.49 40.8739 17.6619C42.0458 18.8337 42.9364 20.1697 43.5458 21.6697C44.202 23.1697 44.5301 24.74 44.5301 26.3806C44.5301 28.6306 43.9676 30.7166 42.8426 32.6384C41.7176 34.5134 40.1942 36.0134 38.2723 37.1384C36.3973 38.2166 34.3348 38.7556 32.0848 38.7556C29.8348 38.7556 27.7489 38.1697 25.827 36.9978L25.4051 36.7869L20.7645 37.9822L21.9598 33.4119L21.6786 32.99C20.413 30.9744 19.7801 28.7712 19.7801 26.3806C19.7801 24.1306 20.3426 22.0681 21.4676 20.1931C22.5926 18.3181 24.0926 16.8181 25.9676 15.6931C27.8426 14.5681 29.9051 14.0056 32.1551 14.0056ZM26.8817 19.49C26.5067 19.49 26.1786 19.6541 25.8973 19.9822L25.827 20.0525C24.9833 20.9431 24.5614 21.9509 24.5614 23.0759C24.5614 24.2009 25.0536 25.4431 26.038 26.8025L26.1786 27.0837C28.1005 29.7556 30.1864 31.5603 32.4364 32.4978C33.0926 32.8259 33.7723 33.1072 34.4755 33.3416C35.2255 33.5291 36.0458 33.5759 36.9364 33.4822C37.3114 33.3884 37.7801 33.1775 38.3426 32.8494C38.9051 32.4744 39.2567 32.0994 39.3973 31.7244C39.538 31.3025 39.6317 30.9275 39.6786 30.5994C39.7255 30.2712 39.702 30.0603 39.6083 29.9666C39.5614 29.8728 39.3739 29.7322 39.0458 29.5447L37.6395 28.8416C36.9833 28.5134 36.5614 28.3259 36.3739 28.2791C36.1864 28.2322 36.0223 28.2087 35.8817 28.2087C35.788 28.2087 35.6708 28.3025 35.5301 28.49C35.3426 28.7712 34.9676 29.24 34.4051 29.8962C34.1708 30.1306 33.8895 30.1775 33.5614 30.0369L33.3505 29.8962C32.2723 29.4744 31.3583 28.9119 30.6083 28.2087C29.8583 27.5056 29.1551 26.6384 28.4989 25.6072C28.3583 25.3259 28.4051 25.0681 28.6395 24.8337C28.8739 24.5994 29.0614 24.4119 29.202 24.2712C29.3426 24.0837 29.4598 23.8962 29.5536 23.7087L29.6239 23.5681C29.7176 23.3806 29.6942 23.1697 29.5536 22.9353L28.4286 20.1931C28.288 19.9119 28.1708 19.7478 28.077 19.7009C27.9833 19.6072 27.8426 19.5603 27.6551 19.5603L26.8817 19.49Z" fill="white"/>
<defs>
<filter id="filter0_d_18_176" x="0" y="0" width="63" height="63" filterUnits="userSpaceOnUse" color-interpolation-filters="sRGB">
<feFlood flood-opacity="0" result="BackgroundImageFix"/>
<feColorMatrix in="SourceAlpha" type="matrix" values="0 0 0 0 0 0 0 0 0 0 0 0 0 0 0 0 0 0 127 0" result="hardAlpha"/>
<feOffset dy="4"/>
<feGaussianBlur stdDeviation="2"/>
<feColorMatrix type="matrix" values="0 0 0 0 0 0 0 0 0 0 0 0 0 0 0 0 0 0 0.25 0"/>
<feBlend mode="normal" in2="BackgroundImageFix" result="effect1_dropShadow_18_176"/>
<feBlend mode="normal" in="SourceGraphic" in2="effect1_dropShadow_18_176" result="shape"/>
</filter>
</defs>
</svg>
